# xmcd
#
# Track frame offsets: 
#        150
#        17450
#        30287
#        48387
#        62777
#        72762
#        89857
#        103917
#        121765
#        137572
#        154285
#        170620
#        188562
#        205192
#        221997
#
# Disc length: 3220 seconds
#
# Revision: 0
# Processed by: cddbd v1.5.2PL0 Copyright (c) Steve Scherf et al.
# Submitted via: ExactAudioCopy v1.0b3
#
DISCID=d40c920f
DTITLE=林零 - 情调再现
DYEAR=1900
DGENRE=
TTITLE0=寄语白云
TTITLE1=誓言
TTITLE2=深秋
TTITLE3=天真活泼又美丽
TTITLE4=巧合
TTITLE5=喝采
TTITLE6=星语
TTITLE7=秋水伊人
TTITLE8=默默的祝福你
TTITLE9=杜鹃时节
TTITLE10=惜别
TTITLE11=像风一样
TTITLE12=情义无价
TTITLE13=不能说出你的名字
TTITLE14=醉情
EXTD=
EXTT0=
EXTT1=
EXTT2=
EXTT3=
EXTT4=
EXTT5=
EXTT6=
EXTT7=
EXTT8=
EXTT9=
EXTT10=
EXTT11=
EXTT12=
EXTT13=
EXTT14=
PLAYORDER=
